<svg width="128" height="108" viewBox="0 0 128 108" fill="none" xmlns="http://www.w3.org/2000/svg">
<g clip-path="url(#clip0_6_87)">
<path d="M95 94.38C94.9928 93.2695 95.2082 92.1687 95.6336 91.1429C96.059 90.117 96.6858 89.1868 97.4767 88.4073C98.2677 87.6278 99.2069 87.0147 100.239 86.6043C101.271 86.1939 102.375 85.9945 103.485 86.0179C104.595 86.0413 105.69 86.287 106.703 86.7405C107.717 87.194 108.63 87.8461 109.387 88.6583C110.144 89.4704 110.731 90.4262 111.113 91.4691C111.495 92.5119 111.664 93.6207 111.61 94.73C111.556 96.909 110.665 98.9834 109.121 100.522C107.577 102.06 105.499 102.944 103.32 102.99C102.205 102.984 101.102 102.755 100.076 102.316C99.0503 101.878 98.1227 101.239 97.3476 100.436C96.5724 99.6342 95.9655 98.6852 95.5623 97.6452C95.1592 96.6051 94.968 95.495 95 94.38Z" fill="url(#paint0_linear_6_87)"/>
<path d="M57.8 90.6C58.8882 90.5759 59.9702 90.7703 60.982 91.1717C61.9938 91.5731 62.9148 92.1734 63.6905 92.937C64.4662 93.7006 65.0809 94.612 65.4982 95.6174C65.9155 96.6227 66.127 97.7015 66.12 98.79C66.1408 99.9099 65.9339 101.022 65.5119 102.06C65.0898 103.098 64.4613 104.039 63.6646 104.826C62.8679 105.613 61.9195 106.231 60.877 106.64C59.8345 107.05 58.7196 107.244 57.6 107.21C55.445 107.114 53.4118 106.184 51.9303 104.616C50.4487 103.048 49.6349 100.965 49.6609 98.8082C49.6869 96.6512 50.5506 94.5888 52.0695 93.0571C53.5883 91.5253 55.6433 90.6442 57.8 90.6Z" fill="url(#paint1_linear_6_87)"/>
<path d="M62.4 23.56C64.51 23.29 66.62 23.03 68.73 22.73C73.58 22.06 77.67 25 78.35 29.67C78.5976 31.8651 77.9767 34.0701 76.6201 35.8135C75.2634 37.5569 73.2787 38.7006 71.09 39C67.69 39.51 64.28 39.91 60.87 40.36C58.32 40.69 58.32 40.69 58.66 43.36C59.05 46.36 59.48 49.31 59.81 52.29C60.0075 53.9279 59.7194 55.5877 58.9816 57.0633C58.2438 58.5389 57.0888 59.7652 55.66 60.59C54.2084 61.4303 52.5312 61.7979 50.8612 61.6421C49.1912 61.4862 47.611 60.8144 46.34 59.72C44.8409 58.4982 43.8587 56.7552 43.59 54.84C43.02 50.52 42.38 46.2 41.92 41.84C41.07 33.95 47.4 25.78 55.26 24.53C57.63 24.15 60.02 23.9 62.4 23.59V23.56Z" fill="url(#paint2_linear_6_87)"/>
<path d="M40.07 34.12C39.33 29 38 24 38.25 18.82C38.5052 14.8819 40.0976 11.1491 42.7636 8.23945C45.4295 5.3298 49.0092 3.41781 52.91 2.82C60 1.84 67 0.999996 74.11 0.0799962C75.2631 -0.10824 76.4422 -0.0633666 77.5777 0.211963C78.7132 0.487292 79.7819 0.987488 80.7207 1.68298C81.6595 2.37847 82.4494 3.25513 83.0435 4.26114C83.6377 5.26714 84.0241 6.38207 84.18 7.54C84.79 12.43 81.46 16.54 76.31 17.24C69.93 18.09 63.55 18.91 57.17 19.74C48.09 20.92 42.88 25.34 40.07 34.12Z" fill="url(#paint3_linear_6_87)"/>
<path d="M111.881 41.7714C111.764 40.9493 111.482 40.1594 111.052 39.4493C110.622 38.7392 110.052 38.1235 109.377 37.6395C108.703 37.1555 107.937 36.8131 107.127 36.6329C106.316 36.4528 105.477 36.4387 104.661 36.5914C103.081 36.8214 101.501 37.0214 99.9212 37.2314C98.3812 37.4414 96.8312 37.6114 95.2912 37.8414C94.9312 34.5914 94.4512 31.3614 94.0112 28.1214C93.8075 26.6867 93.0679 25.3825 91.9412 24.4714C90.9888 23.6437 89.7998 23.1373 88.5431 23.0242C87.2864 22.9111 86.026 23.197 84.9412 23.8414C83.8705 24.4589 83.0055 25.3782 82.4541 26.4844C81.9028 27.5906 81.6896 28.8347 81.8412 30.0614C81.9412 30.9014 82.0512 31.7414 82.1612 32.5814C82.1313 34.0693 81.6601 35.5148 80.8072 36.7344C79.9544 37.954 78.7585 38.8927 77.3712 39.4314C76.0712 39.6014 74.7612 39.7714 73.4612 39.9714C71.8232 40.2006 70.3396 41.0609 69.3271 42.3687C68.3145 43.6765 67.853 45.3282 68.0412 46.9714C68.1578 47.7932 68.4399 48.5828 68.8704 49.2925C69.3008 50.0021 69.8707 50.6172 70.5455 51.1004C71.2204 51.5837 71.9862 51.9251 72.7967 52.104C73.6072 52.2829 74.4456 52.2956 75.2612 52.1414C76.8312 51.9214 78.4212 51.7214 80.0012 51.5114C81.5412 51.3014 83.0912 51.1214 84.6312 50.9014C84.9912 54.1414 85.4712 57.3814 85.9112 60.6214C86.1148 62.056 86.8545 63.3602 87.9812 64.2714C88.9378 65.0909 90.126 65.5919 91.3805 65.7048C92.6351 65.8177 93.8936 65.5369 94.9812 64.9014C96.0509 64.2835 96.9146 63.3638 97.4643 62.2574C98.0139 61.151 98.225 59.9071 98.0712 58.6814C97.8212 56.4514 97.4912 54.2214 97.2012 52.0014C96.9412 50.0014 96.9412 50.0014 98.8412 49.7714C101.401 49.4314 103.951 49.1214 106.501 48.7714C108.132 48.5327 109.606 47.6684 110.61 46.3617C111.614 45.055 112.07 43.4086 111.881 41.7714Z" fill="url(#paint4_linear_6_87)"/>
<path d="M126 40.25C125.959 40.172 125.923 40.0918 125.89 40.01C125.455 39.0597 124.788 38.2343 123.95 37.61C122.24 36.38 119.8 36.48 117.84 36.98C116.832 37.1723 115.921 37.7055 115.26 38.49C114.586 39.3721 114.127 40.3993 113.92 41.49C113.39 43.97 113.68 46.49 113.3 49.03C112.961 51.4324 112.392 53.7966 111.6 56.09C110.793 58.4401 109.789 60.7181 108.6 62.9C105.77 68.01 101.29 71.9 96.52 75.19C96.15 75.44 95.79 75.68 95.41 75.91C87.33 80.91 77.87 83.38 68.41 81.58C63.7915 80.646 59.3587 78.9567 55.29 76.58C51.4244 74.4931 47.9442 71.7604 45 68.5C43.7787 67.1294 42.6717 65.6612 41.69 64.11C39.1867 60.1466 37.4877 55.7294 36.69 51.11C35.82 46.11 35.69 41.06 35.07 36.06C34.8967 34.58 34.7067 33.1 34.5 31.62C33.37 23.83 27.36 19 18.83 19.22C15.16 19.62 10.83 19.96 6.58 20.59C2.07 21.25 -0.319998 24.05 0.0300017 27.82C0.410002 31.77 3.5 34.17 8.12 33.93C11.0964 33.8506 14.0637 33.5632 17 33.07C18.3 32.82 19.88 32.73 20.78 33.89C21.68 35.05 21.78 37.28 21.87 38.76C22.1493 43.9892 22.7303 49.1978 23.61 54.36C23.8 55.36 24.01 56.42 24.25 57.44C26.2132 66.4146 30.9126 74.559 37.7 80.75C39.1998 82.1002 40.7793 83.3591 42.43 84.52C42.8521 84.8199 43.3046 85.0747 43.78 85.28C44.84 86.08 45.93 86.84 47.04 87.54C47.8897 88.1832 48.9043 88.5725 49.9662 88.6628C51.0281 88.753 52.0939 88.5406 53.04 88.05C58.3 85.71 64.15 87.05 67.11 91.71C69.42 95.38 72.37 96.06 76.04 95.63C79.93 95.18 83.81 94.56 87.68 93.91C88.684 93.77 89.6324 93.3643 90.427 92.7349C91.2217 92.1055 91.8338 91.2753 92.2 90.33C94.89 84.33 98.66 82.22 105.13 82.9C106.309 83.0616 107.509 82.9696 108.65 82.63C109.716 82.1303 110.689 81.4541 111.53 80.63C114.901 77.7586 117.782 74.3574 120.06 70.56C122.922 65.9155 124.879 60.7718 125.83 55.4C126.2 53.3 126.68 51.25 126.91 49.12C127.332 46.1333 127.02 43.0888 126 40.25ZM121.83 56.49C121.83 56.43 121.83 56.36 121.83 56.3V56.5V56.49Z" fill="url(#paint5_linear_6_87)"/>
</g>
<defs>
<linearGradient id="paint0_linear_6_87" x1="95.04" y1="94.54" x2="111.65" y2="94.54" gradientUnits="userSpaceOnUse">
<stop stop-color="#34BAF4"/>
<stop offset="1" stop-color="#2EDBAD"/>
</linearGradient>
<linearGradient id="paint1_linear_6_87" x1="49.52" y1="98.91" x2="66.12" y2="98.91" gradientUnits="userSpaceOnUse">
<stop stop-color="#34BAF4"/>
<stop offset="1" stop-color="#2EDBAD"/>
</linearGradient>
<linearGradient id="paint2_linear_6_87" x1="41.84" y1="42.13" x2="78.43" y2="42.13" gradientUnits="userSpaceOnUse">
<stop stop-color="#34BAF4"/>
<stop offset="1" stop-color="#2EDBAD"/>
</linearGradient>
<linearGradient id="paint3_linear_6_87" x1="38.22" y1="17.06" x2="84.25" y2="17.06" gradientUnits="userSpaceOnUse">
<stop stop-color="#34BAF4"/>
<stop offset="1" stop-color="#2EDBAD"/>
</linearGradient>
<linearGradient id="paint4_linear_6_87" x1="67.9512" y1="44.3714" x2="111.941" y2="44.3714" gradientUnits="userSpaceOnUse">
<stop stop-color="#34BAF4"/>
<stop offset="1" stop-color="#2EDBAD"/>
</linearGradient>
<linearGradient id="paint5_linear_6_87" x1="1.70205e-06" y1="57.48" x2="127.06" y2="57.48" gradientUnits="userSpaceOnUse">
<stop stop-color="#34BAF4"/>
<stop offset="1" stop-color="#2EDBAD"/>
</linearGradient>
<clipPath id="clip0_6_87">
<rect width="127.06" height="107.21" fill="white"/>
</clipPath>
</defs>
</svg>
