<svg width="391" height="168" viewBox="0 0 391 168" fill="none" xmlns="http://www.w3.org/2000/svg">
<g clip-path="url(#clip0_11_24)">
<g clip-path="url(#clip1_11_24)">
<path d="M227.009 94.4973C227.002 93.3854 227.218 92.2833 227.644 91.2562C228.07 90.229 228.697 89.2977 229.489 88.5172C230.281 87.7367 231.221 87.1228 232.255 86.7119C233.288 86.301 234.393 86.1013 235.505 86.1248C236.616 86.1482 237.712 86.3942 238.727 86.8483C239.742 87.3024 240.656 87.9553 241.414 88.7685C242.173 89.5816 242.76 90.5386 243.142 91.5827C243.525 92.6269 243.694 93.7371 243.64 94.8477C243.586 97.0294 242.694 99.1065 241.148 100.647C239.602 102.187 237.521 103.072 235.34 103.118C234.223 103.112 233.118 102.882 232.091 102.443C231.065 102.004 230.136 101.364 229.36 100.561C228.584 99.7581 227.976 98.8079 227.572 97.7665C227.169 96.7252 226.977 95.6137 227.009 94.4973Z" fill="white"/>
<path d="M189.763 90.7126C190.852 90.6884 191.936 90.8831 192.949 91.285C193.962 91.6869 194.884 92.2879 195.661 93.0525C196.437 93.817 197.053 94.7296 197.471 95.7362C197.888 96.7428 198.1 97.8229 198.093 98.9127C198.114 100.034 197.907 101.148 197.484 102.187C197.062 103.226 196.432 104.168 195.635 104.956C194.837 105.745 193.887 106.363 192.844 106.773C191.8 107.183 190.684 107.377 189.563 107.343C187.405 107.247 185.369 106.315 183.886 104.746C182.402 103.176 181.588 101.091 181.614 98.931C181.64 96.7713 182.504 94.7064 184.025 93.1727C185.546 91.639 187.604 90.7568 189.763 90.7126Z" fill="white"/>
<path d="M194.369 23.5893C196.481 23.319 198.594 23.0586 200.707 22.7583C205.563 22.0874 209.658 25.0311 210.339 29.7069C210.586 31.9048 209.965 34.1124 208.606 35.858C207.248 37.6036 205.261 38.7487 203.07 39.0485C199.665 39.5591 196.251 39.9596 192.837 40.4102C190.284 40.7406 190.284 40.7406 190.624 43.4139C191.015 46.4176 191.445 49.3713 191.776 52.355C191.973 53.9949 191.685 55.6568 190.946 57.1342C190.207 58.6116 189.051 59.8395 187.62 60.6653C186.167 61.5066 184.488 61.8748 182.816 61.7187C181.143 61.5626 179.561 60.89 178.289 59.7942C176.788 58.5709 175.804 56.8257 175.535 54.9082C174.965 50.5828 174.324 46.2574 173.863 41.892C173.012 33.9922 179.35 25.8121 187.22 24.5605C189.593 24.18 191.986 23.9297 194.369 23.6193V23.5893Z" fill="white"/>
<path d="M172.011 34.1624C171.27 29.0361 169.938 24.0299 170.189 18.8434C170.444 14.9005 172.039 11.163 174.708 8.24973C177.377 5.33647 180.961 3.4221 184.867 2.82354C191.966 1.84232 198.974 1.00128 206.093 0.080138C207.248 -0.108332 208.428 -0.0634029 209.565 0.212269C210.702 0.48794 211.772 0.988758 212.712 1.68511C213.652 2.38146 214.443 3.25922 215.038 4.26647C215.633 5.27373 216.02 6.39004 216.176 7.54941C216.787 12.4455 213.452 16.5606 208.296 17.2615C201.908 18.1125 195.52 18.9335 189.132 19.7646C180.041 20.946 174.824 25.3715 172.011 34.1624Z" fill="white"/>
<path d="M243.54 43.6041C243.423 42.7811 243.14 41.9902 242.71 41.2792C242.279 40.5682 241.708 39.9518 241.033 39.4671C240.357 38.9825 239.591 38.6397 238.779 38.4593C237.968 38.279 237.128 38.2648 236.311 38.4177C234.729 38.648 233.147 38.8482 231.565 39.0585C230.023 39.2688 228.471 39.439 226.929 39.6693C226.569 36.4152 226.088 33.1812 225.648 29.9372C225.444 28.5008 224.703 27.195 223.575 26.2827C222.621 25.4539 221.431 24.9469 220.173 24.8336C218.914 24.7204 217.652 25.0067 216.566 25.6519C215.494 26.2701 214.628 27.1906 214.076 28.2981C213.524 29.4057 213.311 30.6514 213.462 31.8796C213.563 32.7206 213.673 33.5617 213.783 34.4027C213.753 35.8925 213.281 37.3398 212.427 38.5609C211.573 39.782 210.376 40.7219 208.987 41.2612C207.685 41.4314 206.374 41.6017 205.072 41.8019C203.432 42.0315 201.947 42.8928 200.933 44.2022C199.919 45.5116 199.457 47.1653 199.645 48.8106C199.762 49.6334 200.044 50.424 200.475 51.1346C200.906 51.8451 201.477 52.461 202.153 52.9448C202.828 53.4286 203.595 53.7704 204.407 53.9496C205.218 54.1287 206.058 54.1415 206.874 53.987C208.446 53.7668 210.038 53.5665 211.62 53.3562C213.162 53.146 214.714 52.9658 216.256 52.7455C216.616 55.9895 217.097 59.2335 217.537 62.4776C217.741 63.914 218.482 65.2198 219.61 66.1321C220.568 66.9526 221.757 67.4543 223.014 67.5673C224.27 67.6804 225.53 67.3992 226.619 66.7629C227.69 66.1442 228.555 65.2234 229.105 64.1156C229.655 63.0079 229.867 61.7624 229.713 60.5352C229.462 58.3024 229.132 56.0696 228.841 53.8469C228.581 51.8444 228.581 51.8444 230.484 51.6141C233.047 51.2737 235.6 50.9633 238.153 50.6128C239.786 50.3739 241.261 49.5085 242.267 48.2002C243.272 46.8918 243.729 45.2434 243.54 43.6041Z" fill="white"/>
<path d="M258.048 40.3002C258.007 40.222 257.97 40.1418 257.938 40.0599C257.502 39.1084 256.834 38.282 255.995 37.6569C254.283 36.4254 251.84 36.5255 249.878 37.0261C248.868 37.2187 247.956 37.7525 247.294 38.538C246.619 39.4211 246.16 40.4497 245.953 41.5417C245.422 44.0248 245.712 46.5479 245.332 49.0911C244.992 51.4964 244.422 53.8636 243.63 56.1598C242.821 58.5129 241.817 60.7937 240.626 62.9783C237.793 68.0947 233.307 71.9895 228.531 75.2836C228.161 75.5339 227.8 75.7742 227.42 76.0045C219.33 81.0107 209.858 83.4838 200.386 81.6815C195.762 80.7464 191.324 79.055 187.25 76.6753C183.379 74.5858 179.895 71.8497 176.947 68.5853C175.724 67.213 174.616 65.7429 173.633 64.1898C171.126 60.2215 169.425 55.7988 168.627 51.1737C167.756 46.1674 167.625 41.1112 167.005 36.105C166.831 34.6231 166.641 33.1413 166.434 31.6594C165.303 23.8598 159.285 19.0238 150.745 19.244C147.07 19.6445 142.735 19.985 138.479 20.6157C133.964 21.2766 131.571 24.08 131.921 27.8547C132.302 31.8096 135.395 34.2126 140.021 33.9723C143.001 33.8928 145.972 33.6051 148.912 33.1112C150.214 32.8609 151.796 32.7708 152.697 33.9323C153.598 35.0937 153.698 37.3265 153.788 38.8083C154.068 44.044 154.65 49.2591 155.53 54.4277C155.721 55.4289 155.931 56.4903 156.171 57.5115C158.137 66.4973 162.842 74.6518 169.638 80.8505C171.14 82.2024 172.721 83.4628 174.374 84.6252C174.797 84.9255 175.25 85.1805 175.726 85.3861C176.787 86.1871 177.878 86.948 178.99 87.6489C179.84 88.2929 180.856 88.6827 181.919 88.7731C182.983 88.8634 184.05 88.6507 184.997 88.1596C190.264 85.8166 196.121 87.1583 199.085 91.8241C201.397 95.4987 204.351 96.1795 208.026 95.749C211.92 95.2984 215.805 94.6776 219.68 94.0268C220.685 93.8867 221.635 93.4805 222.431 92.8503C223.226 92.2201 223.839 91.3888 224.206 90.4424C226.899 84.4349 230.674 82.3223 237.152 83.0032C238.332 83.1649 239.534 83.0728 240.676 82.7328C241.743 82.2325 242.718 81.5555 243.56 80.7303C246.935 77.8554 249.82 74.45 252.1 70.6478C254.965 65.9975 256.926 60.8475 257.877 55.469C258.248 53.3664 258.729 51.3138 258.959 49.1812C259.381 46.1908 259.069 43.1425 258.048 40.3002ZM253.873 56.5603C253.873 56.5003 253.873 56.4302 253.873 56.3701V56.5704V56.5603Z" fill="white"/>
</g>
<path d="M24.8952 141.471H11.2583V132.79H26.2769C26.8667 132.84 27.4605 132.77 28.0219 132.582C28.5832 132.394 29.1002 132.094 29.541 131.699C30.3265 130.796 30.7226 129.619 30.6423 128.425C30.6809 127.849 30.6032 127.271 30.414 126.726C30.2248 126.18 29.9279 125.679 29.541 125.251C29.1025 124.858 28.589 124.558 28.0315 124.368C27.474 124.179 26.884 124.105 26.297 124.149H5.88162C5.0912 124.093 4.29762 124.197 3.54781 124.453C2.798 124.709 2.10719 125.113 1.5162 125.641C0.985815 126.233 0.579586 126.925 0.321607 127.676C0.0636275 128.428 -0.0408521 129.224 0.0143405 130.016V161.946C-0.0371171 162.732 0.0692404 163.521 0.327168 164.266C0.585095 165.01 0.989379 165.696 1.5162 166.281C2.07101 166.811 2.72901 167.22 3.44911 167.484C4.16922 167.747 4.93595 167.86 5.70139 167.813C9.40599 167.813 11.2583 165.858 11.2583 161.946V150.081H24.8952C25.4871 150.13 26.0827 150.057 26.6455 149.867C27.2084 149.678 27.7268 149.376 28.1693 148.98C28.5527 148.533 28.8439 148.014 29.026 147.454C29.2082 146.894 29.2777 146.303 29.2306 145.716C29.3102 145.131 29.2524 144.535 29.0618 143.975C28.8711 143.416 28.5528 142.909 28.1321 142.494C27.7114 142.079 27.1999 141.768 26.638 141.585C26.0762 141.402 25.4795 141.353 24.8952 141.441V141.471Z" fill="white"/>
<path d="M57.9662 128.144C57.3961 126.763 56.4787 125.552 55.3029 124.63C54.2461 123.869 52.9705 123.472 51.6684 123.498C50.3374 123.464 49.0309 123.861 47.9438 124.63C46.7526 125.544 45.8236 126.756 45.2504 128.144L30.0315 160.905C29.4887 161.991 29.2963 163.219 29.4808 164.419C29.5688 164.916 29.7549 165.391 30.0282 165.816C30.3015 166.24 30.6566 166.606 31.0728 166.892C32.0061 167.529 33.1178 167.851 34.2468 167.813C35.531 167.916 36.8041 167.51 37.7912 166.682C38.7558 165.626 39.5042 164.391 39.9939 163.047L41.9363 158.522H61.2803L63.2127 163.047C63.7225 164.415 64.5375 165.647 65.5957 166.652C66.635 167.472 67.938 167.885 69.2602 167.813C70.3698 167.856 71.4642 167.544 72.3841 166.922C72.7861 166.631 73.1254 166.262 73.3817 165.838C73.638 165.413 73.8061 164.94 73.8759 164.449C74.0299 163.23 73.8062 161.993 73.2351 160.905L57.9662 128.144ZM51.5482 135.844H51.6684L57.5257 149.861H45.681L51.5482 135.844Z" fill="white"/>
<path d="M111.022 154.977C110.265 153.423 109.103 152.102 107.658 151.153C107.004 150.748 106.296 150.438 105.555 150.232C106.363 150.016 107.15 149.731 107.908 149.381C110.07 148.406 111.882 146.796 113.105 144.765C114.334 142.587 114.947 140.116 114.877 137.616C114.877 133.384 113.542 130.073 110.872 127.684C108.202 125.294 104.451 124.102 99.6181 124.109H84.5995C83.8288 124.06 83.056 124.163 82.3256 124.414C81.5952 124.665 80.9218 125.058 80.3442 125.571C79.8162 126.146 79.4115 126.822 79.1549 127.559C78.8984 128.296 78.7954 129.078 78.8523 129.856V162.066C78.7633 163.609 79.2889 165.125 80.3141 166.281C80.8721 166.815 81.535 167.227 82.2607 167.491C82.9864 167.754 83.759 167.864 84.5294 167.813C85.2877 167.864 86.048 167.753 86.7606 167.489C87.4732 167.225 88.122 166.814 88.6645 166.281C89.6713 165.116 90.1849 163.604 90.0963 162.066V151.123H93.4605C94.3521 151.109 95.2363 151.287 96.0537 151.643C96.8515 152.029 97.5044 152.661 97.916 153.446L103.503 163.738C104.13 164.957 105.044 166.005 106.166 166.792C107.312 167.494 108.639 167.842 109.981 167.793C111.31 167.9 112.631 167.507 113.686 166.692C114.072 166.342 114.385 165.918 114.605 165.445C114.825 164.972 114.948 164.46 114.967 163.939C114.992 162.71 114.662 161.5 114.016 160.454L111.022 154.977ZM97.5756 143.173H90.1163V132.7H97.5756C99.3103 132.578 101.037 133.028 102.492 133.981C103.076 134.463 103.534 135.078 103.827 135.776C104.12 136.474 104.239 137.232 104.174 137.986C104.229 138.725 104.106 139.466 103.813 140.146C103.52 140.826 103.066 141.424 102.492 141.891C101.037 142.845 99.3103 143.295 97.5756 143.173Z" fill="white"/>
<path d="M156.529 157.451C155.943 156.699 155.109 156.181 154.176 155.989C153.078 155.773 151.939 155.932 150.942 156.439C149.79 156.999 148.572 157.41 147.317 157.661C146.162 157.905 144.984 158.029 143.803 158.031C141.628 158.102 139.472 157.609 137.545 156.6C135.856 155.644 134.516 154.174 133.72 152.404C132.806 150.265 132.369 147.952 132.439 145.626C132.366 143.307 132.804 141 133.72 138.868C134.535 137.105 135.888 135.647 137.585 134.702C139.51 133.685 141.667 133.188 143.843 133.261C145.118 133.26 146.39 133.395 147.638 133.661C148.891 133.94 150.103 134.381 151.242 134.973C151.687 135.245 152.183 135.424 152.7 135.498C153.216 135.572 153.742 135.54 154.246 135.403C155.129 135.134 155.902 134.586 156.448 133.841C157.028 133.075 157.397 132.171 157.52 131.218C157.661 130.219 157.512 129.201 157.089 128.284C156.581 127.245 155.728 126.413 154.676 125.932C152.984 125.065 151.182 124.432 149.32 124.049C147.425 123.612 145.487 123.383 143.542 123.368C140.26 123.316 136.995 123.866 133.911 124.99C131.213 125.988 128.75 127.528 126.672 129.516C124.652 131.486 123.096 133.88 122.116 136.525C121.037 139.45 120.508 142.549 120.554 145.666C120.454 149.762 121.412 153.814 123.337 157.431C125.186 160.722 127.951 163.404 131.297 165.15C135.093 167.096 139.319 168.054 143.583 167.934C145.675 167.928 147.759 167.673 149.79 167.173C151.645 166.757 153.427 166.065 155.077 165.12C156.051 164.633 156.836 163.838 157.31 162.857C157.724 161.971 157.86 160.979 157.7 160.014C157.535 159.074 157.131 158.191 156.529 157.451Z" fill="white"/>
<path d="M194.586 126.152C191.06 124.243 187.099 123.284 183.092 123.368C180.041 123.329 177.012 123.88 174.17 124.99C171.553 126.01 169.168 127.55 167.162 129.516C165.173 131.498 163.639 133.89 162.666 136.524C161.587 139.45 161.058 142.549 161.104 145.666C161.016 149.732 161.974 153.752 163.888 157.34C165.676 160.613 168.343 163.321 171.587 165.16C175.092 167.096 179.048 168.067 183.051 167.974C186.102 168.013 189.131 167.462 191.973 166.352C194.592 165.336 196.965 163.775 198.933 161.77C200.901 159.766 202.42 157.365 203.387 154.727C204.46 151.815 204.99 148.73 204.949 145.626C205.047 141.557 204.11 137.529 202.225 133.921C200.473 130.655 197.822 127.959 194.586 126.152ZM192.073 152.534C191.369 154.311 190.157 155.84 188.588 156.93C186.955 157.989 185.037 158.524 183.092 158.462C181.66 158.524 180.234 158.25 178.928 157.66C177.622 157.07 176.472 156.182 175.572 155.068C173.737 152.805 172.819 149.657 172.819 145.626C172.759 143.262 173.185 140.91 174.07 138.717C174.771 136.921 176.017 135.388 177.633 134.336C179.25 133.284 181.155 132.764 183.081 132.85C184.515 132.776 185.945 133.046 187.252 133.636C188.56 134.226 189.708 135.121 190.601 136.244C192.39 138.5 193.284 141.627 193.284 145.626C193.35 147.987 192.937 150.337 192.073 152.534Z" fill="white"/>
<path d="M252.588 123.498C251.419 123.439 250.26 123.736 249.264 124.349C248.275 125.096 247.47 126.058 246.911 127.163L234.896 148.88L222.881 127.163C222.354 126.054 221.567 125.089 220.588 124.349C219.549 123.723 218.345 123.427 217.134 123.498C216.424 123.454 215.713 123.552 215.042 123.788C214.371 124.023 213.755 124.391 213.229 124.87C212.732 125.371 212.345 125.97 212.092 126.628C211.838 127.286 211.724 127.99 211.757 128.695V162.617C211.674 164.016 212.149 165.392 213.079 166.442C214.137 167.328 215.473 167.814 216.853 167.814C218.234 167.814 219.57 167.328 220.628 166.442C221.532 165.379 221.991 164.009 221.91 162.617V144.074L230.34 158.732C230.784 159.526 231.4 160.21 232.142 160.735C232.904 161.208 233.79 161.442 234.686 161.405C235.579 161.452 236.465 161.217 237.219 160.735C237.932 160.195 238.525 159.513 238.961 158.732L247.582 143.834V162.617C247.5 164.014 247.971 165.388 248.893 166.442C249.951 167.328 251.287 167.814 252.668 167.814C254.048 167.814 255.384 167.328 256.442 166.442C257.35 165.381 257.809 164.01 257.724 162.617V128.695C257.821 127.302 257.364 125.928 256.453 124.87C255.942 124.382 255.333 124.007 254.667 123.77C254.001 123.534 253.292 123.441 252.588 123.498Z" fill="white"/>
<path d="M286.49 124.109H271.471C270.701 124.061 269.928 124.165 269.198 124.416C268.468 124.667 267.794 125.059 267.216 125.571C266.69 126.147 266.286 126.824 266.03 127.56C265.774 128.297 265.67 129.078 265.724 129.856V162.066C265.635 163.609 266.161 165.125 267.186 166.281C267.745 166.816 268.41 167.228 269.137 167.492C269.865 167.756 270.639 167.865 271.411 167.813C272.158 167.854 272.905 167.739 273.605 167.475C274.305 167.212 274.942 166.805 275.476 166.281C276.483 165.116 276.997 163.604 276.908 162.066V152.344H286.49C291.336 152.344 295.084 151.093 297.734 148.59C300.387 146.076 301.739 142.632 301.739 138.227C301.739 133.821 300.417 130.377 297.734 127.864C295.051 125.351 291.306 124.109 286.49 124.109ZM289.363 142.352C287.946 143.359 286.222 143.84 284.487 143.713H276.968V132.7H284.487C286.23 132.571 287.962 133.057 289.383 134.072C289.952 134.59 290.395 135.23 290.679 135.945C290.964 136.66 291.082 137.43 291.026 138.197C291.081 138.973 290.957 139.751 290.663 140.471C290.37 141.192 289.915 141.835 289.333 142.352H289.363Z" fill="white"/>
<path d="M339.145 154.978C338.391 153.421 337.228 152.099 335.781 151.153C335.129 150.745 334.42 150.435 333.678 150.232C334.486 150.016 335.273 149.731 336.031 149.381C338.194 148.409 340.008 146.798 341.228 144.765C342.457 142.587 343.069 140.116 343 137.616C343 133.384 341.665 130.073 338.995 127.684C336.325 125.294 332.577 124.103 327.751 124.109H312.732C311.968 124.064 311.203 124.17 310.479 124.421C309.756 124.672 309.089 125.062 308.517 125.571C307.988 126.145 307.582 126.822 307.323 127.559C307.065 128.295 306.96 129.077 307.015 129.856V162.066C306.926 163.609 307.452 165.125 308.477 166.282C309.037 166.815 309.702 167.227 310.429 167.49C311.156 167.754 311.93 167.864 312.702 167.814C313.459 167.863 314.218 167.752 314.928 167.488C315.639 167.224 316.286 166.813 316.827 166.282C317.834 165.116 318.348 163.604 318.259 162.066V151.123H321.623C322.518 151.109 323.406 151.287 324.227 151.643C325.021 152.035 325.672 152.665 326.089 153.446L331.626 163.738C332.256 164.955 333.169 166.003 334.289 166.792C335.435 167.493 336.762 167.841 338.104 167.793C339.433 167.9 340.754 167.507 341.808 166.692C342.195 166.342 342.508 165.918 342.728 165.445C342.948 164.972 343.071 164.46 343.09 163.939C343.115 162.71 342.785 161.5 342.139 160.454L339.145 154.978ZM325.698 143.173H318.239V132.7H325.698C327.436 132.58 329.166 133.03 330.625 133.982C331.206 134.465 331.661 135.081 331.952 135.779C332.243 136.476 332.362 137.234 332.297 137.986C332.352 138.724 332.229 139.464 331.938 140.143C331.647 140.823 331.196 141.422 330.625 141.891C329.166 142.843 327.436 143.293 325.698 143.173Z" fill="white"/>
<path d="M390.309 160.905L375.03 128.144C374.46 126.763 373.542 125.552 372.366 124.63C371.31 123.868 370.034 123.471 368.732 123.498C367.401 123.466 366.095 123.862 365.007 124.63C363.816 125.544 362.887 126.756 362.314 128.144L347.095 160.905C346.557 161.992 346.365 163.219 346.544 164.419C346.632 164.916 346.818 165.391 347.092 165.816C347.365 166.24 347.72 166.606 348.136 166.892C349.07 167.528 350.181 167.851 351.31 167.813C352.594 167.916 353.868 167.51 354.855 166.682C355.819 165.626 356.568 164.391 357.057 163.047L359 158.522H378.344L380.286 163.047C380.8 164.412 381.614 165.644 382.669 166.652C383.709 167.471 385.012 167.883 386.334 167.813C387.443 167.858 388.538 167.545 389.458 166.922C389.86 166.631 390.199 166.262 390.455 165.837C390.711 165.412 390.88 164.94 390.949 164.449C391.11 163.23 390.886 161.991 390.309 160.905ZM368.592 135.844H368.712L374.579 149.861H362.744L368.592 135.844Z" fill="white"/>
</g>
<defs>
<clipPath id="clip0_11_24">
<rect width="391" height="167.98" fill="white"/>
</clipPath>
<clipPath id="clip1_11_24">
<rect width="127.218" height="107.343" fill="white" transform="translate(131.891)"/>
</clipPath>
</defs>
</svg>
