<svg width="1252" height="470" viewBox="0 0 1252 470" fill="none" xmlns="http://www.w3.org/2000/svg">
<rect width="1251.89" height="470" fill="white"/>
<g clip-path="url(#clip0_1_2)">
<path d="M254.744 322.272C254.728 319.866 255.195 317.482 256.116 315.26C257.037 313.039 258.395 311.024 260.108 309.335C261.821 307.647 263.855 306.319 266.09 305.43C268.326 304.541 270.716 304.109 273.121 304.16C275.526 304.211 277.896 304.743 280.092 305.725C282.287 306.708 284.264 308.12 285.904 309.879C287.545 311.638 288.816 313.708 289.643 315.967C290.47 318.226 290.836 320.627 290.719 323.03C290.603 327.749 288.672 332.242 285.328 335.574C281.984 338.907 277.484 340.821 272.764 340.92C270.348 340.907 267.959 340.41 265.738 339.461C263.516 338.511 261.507 337.127 259.828 335.389C258.149 333.652 256.835 331.596 255.961 329.344C255.088 327.091 254.674 324.687 254.744 322.272Z" fill="url(#paint0_linear_1_2)"/>
<path d="M174.172 314.085C176.529 314.032 178.873 314.454 181.064 315.323C183.255 316.192 185.25 317.492 186.93 319.146C188.611 320.8 189.942 322.774 190.846 324.952C191.75 327.129 192.207 329.466 192.192 331.823C192.238 334.249 191.789 336.659 190.875 338.906C189.961 341.153 188.6 343.191 186.874 344.897C185.149 346.602 183.094 347.939 180.837 348.827C178.579 349.714 176.164 350.134 173.739 350.06C169.071 349.852 164.668 347.837 161.459 344.441C158.25 341.045 156.487 336.535 156.544 331.863C156.6 327.191 158.471 322.724 161.76 319.406C165.05 316.089 169.501 314.18 174.172 314.085Z" fill="url(#paint1_linear_1_2)"/>
<path d="M184.135 168.883C188.705 168.298 193.275 167.735 197.845 167.085C208.35 165.634 217.209 172.002 218.681 182.116C219.218 186.871 217.873 191.647 214.934 195.423C211.996 199.199 207.697 201.676 202.957 202.324C195.593 203.429 188.207 204.295 180.821 205.27C175.298 205.985 175.298 205.985 176.035 211.768C176.879 218.265 177.811 224.655 178.526 231.109C178.953 234.657 178.329 238.252 176.731 241.448C175.133 244.643 172.632 247.3 169.537 249.086C166.393 250.906 162.76 251.702 159.143 251.365C155.526 251.027 152.104 249.572 149.351 247.202C146.104 244.555 143.977 240.78 143.395 236.632C142.16 227.275 140.774 217.919 139.778 208.475C137.937 191.386 151.647 173.691 168.671 170.984C173.804 170.161 178.98 169.619 184.135 168.948V168.883Z" fill="url(#paint2_linear_1_2)"/>
<path d="M135.771 191.755C134.168 180.665 131.287 169.836 131.829 158.616C132.382 150.087 135.831 142.002 141.605 135.7C147.379 129.398 155.132 125.257 163.581 123.962C178.937 121.839 194.098 120.02 209.498 118.027C211.995 117.62 214.549 117.717 217.009 118.313C219.468 118.91 221.783 119.993 223.816 121.499C225.849 123.006 227.56 124.904 228.847 127.083C230.134 129.262 230.971 131.677 231.308 134.185C232.63 144.776 225.417 153.678 214.263 155.194C200.444 157.035 186.626 158.811 172.808 160.609C153.141 163.165 141.857 172.738 135.771 191.755Z" fill="url(#paint3_linear_1_2)"/>
<path d="M290.503 212.179C290.25 210.399 289.639 208.688 288.707 207.15C287.775 205.612 286.541 204.278 285.08 203.23C283.618 202.181 281.96 201.44 280.204 201.05C278.449 200.66 276.632 200.629 274.865 200.96C271.443 201.458 268.02 201.891 264.598 202.346C261.263 202.801 257.906 203.169 254.57 203.667C253.791 196.628 252.751 189.632 251.798 182.615C251.357 179.507 249.755 176.683 247.314 174.709C245.252 172.916 242.676 171.819 239.955 171.575C237.233 171.33 234.503 171.949 232.153 173.345C229.834 174.682 227.961 176.673 226.767 179.069C225.572 181.465 225.111 184.16 225.439 186.816C225.656 188.636 225.894 190.455 226.132 192.274C226.067 195.497 225.047 198.628 223.199 201.269C221.352 203.911 218.762 205.944 215.757 207.111C212.942 207.479 210.104 207.847 207.289 208.28C203.741 208.777 200.528 210.64 198.335 213.473C196.141 216.305 195.142 219.883 195.55 223.442C195.802 225.222 196.413 226.932 197.345 228.469C198.278 230.006 199.512 231.338 200.974 232.385C202.435 233.432 204.094 234.171 205.85 234.558C207.605 234.946 209.421 234.974 211.187 234.639C214.588 234.163 218.032 233.73 221.454 233.275C224.789 232.82 228.146 232.43 231.482 231.954C232.261 238.971 233.301 245.989 234.254 253.006C234.695 256.114 236.297 258.938 238.738 260.912C240.809 262.687 243.383 263.772 246.1 264.016C248.817 264.261 251.543 263.653 253.899 262.276C256.216 260.938 258.087 258.946 259.277 256.55C260.467 254.153 260.925 251.459 260.591 248.804C260.05 243.974 259.335 239.145 258.707 234.336C258.144 230.004 258.144 230.004 262.259 229.506C267.804 228.77 273.327 228.098 278.85 227.34C282.382 226.823 285.574 224.951 287.749 222.121C289.924 219.291 290.912 215.725 290.503 212.179Z" fill="url(#paint4_linear_1_2)"/>
<path d="M321.886 205.032C321.798 204.863 321.719 204.689 321.648 204.512C320.706 202.454 319.261 200.666 317.446 199.314C313.743 196.65 308.458 196.866 304.213 197.949C302.03 198.366 300.057 199.52 298.625 201.22C297.165 203.13 296.171 205.355 295.722 207.717C294.574 213.089 295.202 218.547 294.379 224.048C293.645 229.252 292.412 234.372 290.697 239.339C288.949 244.429 286.775 249.363 284.2 254.089C278.07 265.157 268.367 273.582 258.036 280.708C257.234 281.25 256.455 281.769 255.632 282.268C238.131 293.097 217.642 298.447 197.152 294.548C187.149 292.525 177.548 288.866 168.736 283.719C160.363 279.199 152.825 273.28 146.449 266.218C143.803 263.25 141.406 260.07 139.279 256.71C133.858 248.126 130.178 238.558 128.45 228.553C126.566 217.724 126.284 206.786 124.941 195.956C124.566 192.751 124.154 189.545 123.707 186.34C121.259 169.468 108.242 159.006 89.767 159.483C81.8182 160.349 72.4398 161.086 63.2348 162.45C53.4666 163.88 48.2901 169.944 49.0481 178.109C49.8712 186.665 56.5638 191.863 66.5702 191.343C73.0169 191.171 79.4436 190.549 85.8034 189.48C88.6191 188.939 92.0412 188.744 93.9905 191.256C95.9398 193.769 96.1564 198.599 96.3513 201.804C96.9564 213.13 98.2147 224.412 100.12 235.592C100.532 237.758 100.986 240.054 101.506 242.263C105.758 261.701 115.937 279.341 130.638 292.751C133.886 295.675 137.307 298.402 140.882 300.916C141.797 301.566 142.777 302.117 143.806 302.562C146.102 304.295 148.463 305.941 150.867 307.457C152.707 308.85 154.905 309.693 157.205 309.889C159.505 310.084 161.813 309.624 163.862 308.562C175.255 303.493 187.926 306.396 194.337 316.489C199.34 324.438 205.729 325.91 213.678 324.979C222.103 324.004 230.507 322.662 238.889 321.254C241.064 320.951 243.118 320.072 244.839 318.709C246.56 317.345 247.886 315.547 248.679 313.5C254.505 300.504 262.671 295.934 276.684 297.407C279.238 297.757 281.837 297.558 284.308 296.822C286.616 295.74 288.725 294.276 290.546 292.491C297.847 286.271 304.087 278.905 309.021 270.68C315.219 260.62 319.459 249.48 321.518 237.845C322.32 233.297 323.359 228.856 323.857 224.243C324.771 217.774 324.095 211.18 321.886 205.032ZM312.855 240.206C312.855 240.076 312.855 239.924 312.855 239.794V240.227V240.206Z" fill="url(#paint5_linear_1_2)"/>
</g>
<path d="M441.342 225.913H411.842V207.135H444.331C445.607 207.244 446.891 207.091 448.106 206.685C449.32 206.279 450.438 205.628 451.392 204.774C453.091 202.821 453.948 200.274 453.774 197.691C453.857 196.446 453.69 195.196 453.28 194.016C452.871 192.837 452.229 191.752 451.392 190.825C450.443 189.976 449.332 189.326 448.126 188.917C446.92 188.508 445.644 188.346 444.374 188.443H400.211C398.502 188.322 396.785 188.546 395.163 189.1C393.541 189.654 392.047 190.528 390.768 191.67C389.621 192.95 388.742 194.447 388.184 196.073C387.626 197.699 387.4 199.42 387.519 201.135V270.206C387.408 271.906 387.638 273.612 388.196 275.223C388.754 276.834 389.629 278.316 390.768 279.584C391.968 280.729 393.392 281.614 394.949 282.185C396.507 282.755 398.166 282.998 399.822 282.898C407.835 282.898 411.842 278.667 411.842 270.206V244.54H441.342C442.622 244.644 443.911 244.487 445.128 244.077C446.346 243.667 447.467 243.014 448.424 242.157C449.254 241.19 449.884 240.068 450.278 238.856C450.672 237.644 450.822 236.367 450.72 235.096C450.892 233.83 450.767 232.541 450.355 231.331C449.943 230.121 449.254 229.024 448.344 228.127C447.434 227.229 446.327 226.556 445.112 226.161C443.897 225.765 442.606 225.658 441.342 225.848V225.913Z" fill="#75C6EE"/>
<path d="M512.882 197.085C511.648 194.097 509.664 191.478 507.12 189.483C504.834 187.836 502.075 186.977 499.258 187.035C496.379 186.961 493.553 187.82 491.201 189.483C488.624 191.46 486.615 194.083 485.375 197.085L452.453 267.953C451.279 270.303 450.863 272.959 451.262 275.555C451.452 276.631 451.855 277.658 452.446 278.577C453.037 279.495 453.805 280.287 454.706 280.905C456.724 282.282 459.129 282.98 461.571 282.898C464.349 283.12 467.103 282.241 469.239 280.45C471.326 278.166 472.944 275.495 474.004 272.588L478.206 262.798H520.051L524.231 272.588C525.334 275.545 527.097 278.212 529.386 280.385C531.634 282.16 534.453 283.054 537.313 282.898C539.713 282.991 542.081 282.316 544.071 280.97C544.94 280.341 545.674 279.543 546.229 278.624C546.783 277.705 547.147 276.683 547.298 275.62C547.631 272.983 547.147 270.307 545.912 267.953L512.882 197.085ZM498.998 213.741H499.258L511.929 244.063H486.306L498.998 213.741Z" fill="#75C6EE"/>
<path d="M627.653 255.131C626.015 251.769 623.501 248.91 620.375 246.857C618.96 245.983 617.429 245.312 615.827 244.865C617.573 244.398 619.276 243.782 620.917 243.024C625.592 240.916 629.513 237.433 632.158 233.039C634.816 228.328 636.142 222.982 635.991 217.574C635.991 208.42 633.103 201.258 627.328 196.089C621.552 190.919 613.437 188.342 602.983 188.356H570.495C568.827 188.249 567.156 188.474 565.576 189.017C563.996 189.559 562.539 190.41 561.289 191.519C560.147 192.762 559.272 194.225 558.717 195.82C558.162 197.414 557.939 199.105 558.062 200.789V270.466C557.87 273.803 559.007 277.082 561.224 279.584C562.431 280.738 563.865 281.629 565.435 282.2C567.005 282.77 568.676 283.008 570.343 282.898C571.983 283.006 573.628 282.767 575.169 282.196C576.711 281.625 578.114 280.735 579.288 279.584C581.466 277.062 582.577 273.792 582.385 270.466V246.792H589.663C591.592 246.763 593.504 247.147 595.272 247.919C596.998 248.753 598.411 250.12 599.301 251.817L611.387 274.083C612.743 276.719 614.72 278.986 617.148 280.689C619.626 282.206 622.496 282.96 625.4 282.854C628.275 283.085 631.132 282.236 633.414 280.472C634.25 279.715 634.927 278.797 635.403 277.774C635.879 276.751 636.145 275.643 636.186 274.516C636.241 271.858 635.526 269.24 634.129 266.978L627.653 255.131ZM598.565 229.595H582.429V206.94H598.565C602.317 206.676 606.053 207.65 609.199 209.712C610.463 210.753 611.454 212.085 612.088 213.595C612.722 215.104 612.979 216.745 612.838 218.376C612.958 219.973 612.69 221.575 612.057 223.046C611.423 224.517 610.443 225.813 609.199 226.823C606.053 228.885 602.317 229.859 598.565 229.595Z" fill="#75C6EE"/>
<path d="M726.093 260.481C724.826 258.855 723.022 257.734 721.003 257.319C718.627 256.852 716.164 257.196 714.007 258.293C711.517 259.505 708.882 260.393 706.166 260.936C703.667 261.463 701.119 261.732 698.564 261.737C693.86 261.89 689.197 260.823 685.027 258.64C681.374 256.572 678.476 253.393 676.754 249.565C674.775 244.936 673.829 239.933 673.981 234.901C673.825 229.884 674.771 224.893 676.754 220.282C678.516 216.469 681.444 213.314 685.114 211.272C689.277 209.07 693.944 207.995 698.651 208.153C701.41 208.152 704.161 208.442 706.859 209.019C709.571 209.622 712.192 210.575 714.657 211.856C715.619 212.445 716.692 212.832 717.81 212.992C718.927 213.152 720.065 213.083 721.154 212.788C723.066 212.206 724.738 211.02 725.919 209.409C727.173 207.751 727.972 205.795 728.237 203.734C728.543 201.573 728.22 199.37 727.306 197.388C726.206 195.139 724.362 193.341 722.086 192.298C718.425 190.423 714.527 189.054 710.498 188.226C706.399 187.28 702.208 186.786 698.001 186.754C690.9 186.641 683.838 187.83 677.165 190.262C671.331 192.42 666.001 195.752 661.506 200.052C657.137 204.313 653.771 209.492 651.651 215.213C649.317 221.541 648.172 228.245 648.272 234.988C648.055 243.848 650.129 252.614 654.293 260.437C658.291 267.556 664.274 273.358 671.512 277.137C679.723 281.347 688.864 283.418 698.088 283.158C702.613 283.146 707.122 282.593 711.516 281.512C715.529 280.611 719.383 279.115 722.952 277.072C725.059 276.018 726.757 274.297 727.782 272.177C728.678 270.259 728.973 268.114 728.627 266.025C728.269 263.991 727.396 262.083 726.093 260.481Z" fill="#31CFC8"/>
<path d="M808.418 192.775C800.792 188.646 792.224 186.571 783.554 186.754C776.955 186.669 770.402 187.86 764.256 190.262C758.593 192.468 753.435 195.799 749.094 200.052C744.792 204.341 741.473 209.514 739.37 215.213C737.036 221.541 735.891 228.245 735.991 234.988C735.8 243.783 737.873 252.48 742.012 260.242C745.88 267.322 751.649 273.181 758.668 277.158C766.25 281.345 774.808 283.446 783.467 283.244C790.066 283.329 796.619 282.138 802.765 279.736C808.432 277.54 813.565 274.161 817.822 269.825C822.08 265.489 825.364 260.295 827.457 254.59C829.779 248.289 830.924 241.616 830.835 234.901C831.048 226.099 829.021 217.387 824.944 209.582C821.153 202.517 815.418 196.685 808.418 192.775ZM802.982 249.846C801.461 253.689 798.838 256.996 795.445 259.354C791.912 261.646 787.763 262.802 783.554 262.668C780.457 262.803 777.372 262.209 774.547 260.934C771.721 259.659 769.235 257.738 767.288 255.326C763.317 250.431 761.332 243.623 761.332 234.901C761.202 229.787 762.124 224.701 764.039 219.957C765.555 216.07 768.251 212.756 771.747 210.48C775.243 208.203 779.364 207.079 783.532 207.265C786.632 207.105 789.726 207.688 792.555 208.965C795.384 210.242 797.867 212.176 799.798 214.607C803.668 219.488 805.603 226.252 805.603 234.901C805.744 240.009 804.853 245.092 802.982 249.846Z" fill="#31CFC8"/>
<path d="M933.889 187.035C931.361 186.906 928.853 187.548 926.698 188.876C924.56 190.491 922.819 192.572 921.608 194.962L895.617 241.941L869.627 194.962C868.487 192.564 866.786 190.476 864.667 188.876C862.419 187.522 859.814 186.88 857.194 187.035C855.659 186.939 854.121 187.152 852.67 187.661C851.219 188.171 849.885 188.967 848.747 190.002C847.673 191.086 846.835 192.381 846.287 193.805C845.739 195.229 845.493 196.752 845.563 198.276V271.657C845.384 274.684 846.412 277.66 848.422 279.93C850.711 281.848 853.602 282.899 856.588 282.899C859.574 282.899 862.465 281.848 864.753 279.93C866.708 277.632 867.701 274.669 867.526 271.657V231.544L885.763 263.253C886.723 264.97 888.055 266.45 889.661 267.585C891.308 268.609 893.225 269.114 895.163 269.036C897.096 269.136 899.012 268.629 900.642 267.585C902.185 266.418 903.469 264.943 904.411 263.253L923.059 231.025V271.657C922.883 274.68 923.902 277.652 925.897 279.93C928.185 281.848 931.076 282.899 934.062 282.899C937.048 282.899 939.939 281.848 942.228 279.93C944.19 277.637 945.185 274.67 945 271.657V198.276C945.209 195.263 944.221 192.29 942.249 190.002C941.144 188.946 939.828 188.135 938.387 187.623C936.946 187.112 935.413 186.911 933.889 187.035Z" fill="#31CFC8"/>
<path d="M1007.23 188.356H974.738C973.071 188.252 971.4 188.477 969.82 189.02C968.24 189.563 966.783 190.412 965.533 191.519C964.395 192.764 963.522 194.229 962.967 195.822C962.412 197.416 962.187 199.105 962.305 200.789V270.466C962.113 273.803 963.25 277.082 965.468 279.584C966.678 280.74 968.116 281.632 969.689 282.202C971.263 282.773 972.938 283.01 974.608 282.898C976.223 282.986 977.839 282.737 979.353 282.167C980.867 281.596 982.246 280.717 983.401 279.584C985.579 277.062 986.69 273.792 986.499 270.466V249.435H1007.23C1017.71 249.435 1025.82 246.727 1031.55 241.313C1037.29 235.876 1040.21 228.425 1040.21 218.895C1040.21 209.366 1037.35 201.915 1031.55 196.478C1025.74 191.042 1017.64 188.356 1007.23 188.356ZM1013.44 227.819C1010.38 229.997 1006.65 231.039 1002.89 230.765H986.628V206.94H1002.89C1006.66 206.662 1010.41 207.711 1013.49 209.907C1014.72 211.028 1015.67 212.414 1016.29 213.96C1016.9 215.506 1017.16 217.171 1017.04 218.831C1017.16 220.509 1016.89 222.193 1016.25 223.751C1015.62 225.31 1014.64 226.701 1013.38 227.819H1013.44Z" fill="#31CFC8"/>
<path d="M1121.13 255.131C1119.5 251.765 1116.98 248.905 1113.85 246.857C1112.44 245.975 1110.91 245.304 1109.31 244.865C1111.05 244.398 1112.75 243.782 1114.39 243.024C1119.07 240.922 1123 237.437 1125.64 233.039C1128.29 228.328 1129.62 222.982 1129.47 217.574C1129.47 208.42 1126.58 201.258 1120.81 196.089C1115.03 190.919 1106.92 188.342 1096.48 188.356H1063.99C1062.34 188.259 1060.69 188.488 1059.12 189.03C1057.56 189.573 1056.11 190.418 1054.88 191.519C1053.73 192.761 1052.85 194.224 1052.29 195.818C1051.73 197.412 1051.51 199.104 1051.63 200.789V270.466C1051.43 273.803 1052.57 277.082 1054.79 279.584C1056 280.738 1057.44 281.628 1059.01 282.199C1060.59 282.769 1062.26 283.007 1063.93 282.898C1065.57 283.005 1067.21 282.765 1068.75 282.194C1070.28 281.623 1071.68 280.733 1072.85 279.584C1075.03 277.062 1076.14 273.792 1075.95 270.466V246.792H1083.23C1085.16 246.763 1087.08 247.147 1088.86 247.919C1090.58 248.765 1091.99 250.129 1092.89 251.817L1104.87 274.083C1106.23 276.715 1108.2 278.981 1110.63 280.689C1113.11 282.204 1115.97 282.957 1118.88 282.854C1121.75 283.085 1124.61 282.236 1126.89 280.472C1127.73 279.715 1128.41 278.797 1128.88 277.774C1129.36 276.751 1129.62 275.643 1129.66 274.516C1129.72 271.858 1129 269.24 1127.61 266.978L1121.13 255.131ZM1092.04 229.595H1075.91V206.94H1092.04C1095.8 206.681 1099.54 207.654 1102.7 209.712C1103.96 210.757 1104.94 212.091 1105.57 213.6C1106.2 215.108 1106.46 216.747 1106.32 218.376C1106.44 219.971 1106.17 221.571 1105.54 223.041C1104.91 224.511 1103.94 225.808 1102.7 226.823C1099.54 228.881 1095.8 229.854 1092.04 229.595Z" fill="#31CFC8"/>
<path d="M1231.81 267.953L1198.76 197.085C1197.52 194.097 1195.54 191.478 1193 189.483C1190.71 187.836 1187.95 186.977 1185.13 187.035C1182.25 186.964 1179.43 187.823 1177.08 189.483C1174.5 191.46 1172.49 194.083 1171.25 197.085L1138.33 267.953C1137.16 270.306 1136.75 272.959 1137.14 275.555C1137.33 276.631 1137.73 277.658 1138.32 278.576C1138.91 279.495 1139.68 280.287 1140.58 280.905C1142.6 282.282 1145 282.98 1147.45 282.898C1150.22 283.12 1152.98 282.241 1155.11 280.45C1157.2 278.166 1158.82 275.495 1159.88 272.588L1164.08 262.798H1205.93L1210.13 272.588C1211.24 275.541 1213 278.206 1215.28 280.385C1217.53 282.157 1220.35 283.05 1223.21 282.898C1225.61 282.994 1227.98 282.318 1229.97 280.97C1230.84 280.341 1231.57 279.543 1232.13 278.624C1232.68 277.705 1233.04 276.683 1233.19 275.62C1233.54 272.983 1233.06 270.302 1231.81 267.953ZM1184.83 213.741H1185.09L1197.78 244.063H1172.18L1184.83 213.741Z" fill="#31CFC8"/>
<defs>
<linearGradient id="paint0_linear_1_2" x1="254.83" y1="322.618" x2="290.806" y2="322.618" gradientUnits="userSpaceOnUse">
<stop stop-color="#34BAF4"/>
<stop offset="1" stop-color="#2EDBAD"/>
</linearGradient>
<linearGradient id="paint1_linear_1_2" x1="156.238" y1="332.083" x2="192.192" y2="332.083" gradientUnits="userSpaceOnUse">
<stop stop-color="#34BAF4"/>
<stop offset="1" stop-color="#2EDBAD"/>
</linearGradient>
<linearGradient id="paint2_linear_1_2" x1="139.604" y1="209.103" x2="218.855" y2="209.103" gradientUnits="userSpaceOnUse">
<stop stop-color="#34BAF4"/>
<stop offset="1" stop-color="#2EDBAD"/>
</linearGradient>
<linearGradient id="paint3_linear_1_2" x1="131.764" y1="154.804" x2="231.46" y2="154.804" gradientUnits="userSpaceOnUse">
<stop stop-color="#34BAF4"/>
<stop offset="1" stop-color="#2EDBAD"/>
</linearGradient>
<linearGradient id="paint4_linear_1_2" x1="195.355" y1="217.81" x2="290.632" y2="217.81" gradientUnits="userSpaceOnUse">
<stop stop-color="#34BAF4"/>
<stop offset="1" stop-color="#2EDBAD"/>
</linearGradient>
<linearGradient id="paint5_linear_1_2" x1="48.9831" y1="242.35" x2="324.182" y2="242.35" gradientUnits="userSpaceOnUse">
<stop stop-color="#34BAF4"/>
<stop offset="1" stop-color="#2EDBAD"/>
</linearGradient>
<clipPath id="clip0_1_2">
<rect width="275.199" height="232.206" fill="white" transform="translate(48.9832 117.854)"/>
</clipPath>
</defs>
</svg>
